<?xml version="1.0" encoding="UTF-8" standalone="no"?>
<svg
   version="1.0"
   width="325pt"
   height="325pt"
   viewBox="0 0 325 325"
   preserveAspectRatio="xMidYMid"
   id="svg9"
   sodipodi:docname="sphere.svg"
   inkscape:version="1.4.3 (0d15f75, 2025-12-25)"
   xmlns:inkscape="http://www.inkscape.org/namespaces/inkscape"
   xmlns:sodipodi="http://sodipodi.sourceforge.net/DTD/sodipodi-0.dtd"
   xmlns="http://www.w3.org/2000/svg"
   xmlns:svg="http://www.w3.org/2000/svg">
  <defs
     id="defs9" />
  <sodipodi:namedview
     id="namedview9"
     pagecolor="#ffffff"
     bordercolor="#000000"
     borderopacity="0.25"
     inkscape:showpageshadow="2"
     inkscape:pageopacity="0.0"
     inkscape:pagecheckerboard="0"
     inkscape:deskcolor="#d1d1d1"
     inkscape:document-units="pt"
     inkscape:zoom="0.6695279"
     inkscape:cx="165.78846"
     inkscape:cy="131.4359"
     inkscape:window-width="1352"
     inkscape:window-height="815"
     inkscape:window-x="0"
     inkscape:window-y="35"
     inkscape:window-maximized="0"
     inkscape:current-layer="svg9">
    <inkscape:page
       x="0"
       y="0"
       width="325"
       height="325"
       id="page9"
       margin="0"
       bleed="0" />
  </sodipodi:namedview>
  <g
     transform="matrix(0.10111739,0,0,-0.10111739,-70.713072,395.81568)"
     fill="#000000"
     stroke="none"
     id="g9">
    <path
       d="m 3010,3744 c 0,-3 25,-29 55,-59 49,-48 55,-58 55,-95 0,-58 -20,-90 -87,-136 -107,-74 -228,-116 -473,-163 -292,-55 -804,-56 -1075,-2 -91,19 -184,54 -220,83 -28,23 -35,37 -35,64 0,36 -22,48 -34,18 -12,-31 -5,-51 26,-80 44,-40 159,-94 201,-94 13,0 27,-4 32,-9 6,-5 30,-12 55,-15 25,-4 74,-11 110,-17 161,-25 685,-31 770,-8 19,5 55,9 79,9 24,0 60,4 80,9 20,5 68,15 106,21 39,6 84,15 100,20 17,5 50,14 75,20 25,7 53,16 62,21 10,5 25,9 33,9 8,0 23,4 33,9 9,4 52,26 96,47 147,72 193,161 124,239 -42,49 -168,130 -168,109 z"
       id="path1" />
    <path
       d="m 3569,3293 c 0,-5 0,-27 1,-50 1,-42 -14,-82 -47,-119 -18,-20 -137,-104 -147,-104 -3,0 -35,-13 -71,-30 -36,-16 -71,-30 -79,-30 -7,0 -16,-3 -20,-7 -10,-11 -79,-33 -103,-33 -12,0 -24,-4 -27,-9 -3,-5 -18,-11 -33,-14 -16,-4 -48,-11 -73,-16 -490,-109 -1166,-127 -1615,-42 -27,5 -69,13 -93,17 -23,4 -45,11 -48,15 -3,5 -16,9 -30,9 -13,0 -32,4 -42,9 -9,5 -28,13 -42,19 -77,31 -106,47 -141,79 -24,22 -39,44 -39,59 0,46 -17,32 -49,-39 -18,-40 -37,-81 -41,-92 -41,-104 -50,-132 -50,-162 0,-147 311,-243 885,-274 213,-12 600,-1 775,21 41,5 109,14 150,19 90,11 300,48 355,62 22,6 56,14 75,19 78,19 289,89 345,115 105,48 190,102 238,152 69,71 79,89 87,156 9,74 -3,111 -68,210 -45,66 -51,74 -53,60 z"
       id="path2" />
    <path
       d="m 3867,2587 c -14,-99 -117,-204 -279,-285 -118,-59 -193,-92 -208,-92 -6,0 -18,-4 -28,-10 -16,-9 -178,-58 -214,-65 -9,-2 -43,-10 -75,-19 -54,-13 -77,-19 -195,-46 -24,-5 -59,-11 -78,-14 -19,-3 -64,-11 -100,-16 -198,-32 -313,-46 -447,-56 -46,-3 -83,-10 -83,-16 0,-21 523,28 755,71 28,5 70,12 95,16 25,4 56,10 70,15 14,4 52,13 85,20 377,79 645,219 716,374 22,48 25,125 6,151 -13,16 -14,13 -20,-28 z"
       id="path3" />
    <path
       d="m 710,2225 c 0,-18 64,-85 81,-85 10,0 -58,93 -72,98 -5,2 -9,-4 -9,-13 z"
       id="path4" />
    <path
       d="m 890,2094 c 0,-12 34,-33 53,-34 9,0 25,-4 35,-9 28,-14 87,-31 108,-31 11,0 24,-4 29,-9 6,-5 33,-12 60,-15 147,-18 194,-24 230,-30 22,-3 109,-7 194,-10 114,-3 151,-2 142,7 -6,6 -76,14 -174,19 -157,7 -246,16 -372,38 -33,6 -77,13 -98,16 -20,4 -40,10 -43,15 -3,5 -18,9 -34,9 -16,0 -32,5 -35,10 -3,6 -17,10 -30,10 -13,0 -27,5 -30,10 -7,11 -35,14 -35,4 z"
       id="path5" />
    <path
       d="m 3851,1925 c -28,-41 -89,-93 -157,-132 -63,-38 -239,-113 -263,-113 -10,0 -21,-3 -25,-7 -10,-11 -79,-33 -103,-33 -12,0 -25,-4 -28,-10 -3,-5 -19,-10 -35,-10 -16,0 -32,-4 -35,-10 -3,-5 -24,-10 -45,-10 -21,0 -41,-4 -44,-9 -3,-4 -27,-11 -53,-15 -27,-4 -72,-12 -100,-17 -563,-100 -1209,-115 -1658,-39 -197,34 -351,94 -439,172 -45,39 -46,39 -46,14 0,-13 5,-28 10,-31 6,-3 10,-13 10,-21 0,-8 17,-42 37,-77 21,-34 44,-75 52,-90 52,-99 123,-140 336,-196 80,-20 345,-51 540,-61 304,-17 803,11 1065,61 301,56 551,133 683,211 26,15 52,28 57,28 4,0 10,3 12,8 2,4 29,27 61,51 95,72 135,140 188,319 16,54 10,60 -20,17 z"
       id="path6" />
    <path
       d="m 3460,1212 c -103,-70 -199,-114 -345,-159 -284,-86 -671,-132 -1124,-133 -101,0 -142,-3 -135,-10 7,-7 114,-9 320,-7 346,5 470,15 694,58 30,5 72,13 93,16 20,3 40,9 43,14 3,5 17,9 31,9 36,0 193,54 288,100 82,39 178,108 189,135 7,20 9,21 -54,-23 z"
       id="path7" />
    <path
       d="m 1570,948 c 0,-4 16,-8 36,-8 19,0 33,4 29,9 -7,12 -65,11 -65,-1 z"
       id="path8" />
    <path
       d="m 1675,930 c 3,-5 31,-10 61,-10 34,0 53,4 49,10 -3,6 -31,10 -61,10 -34,0 -53,-4 -49,-10 z"
       id="path9" />
  </g>
</svg>
